<?xml version="1.0" encoding="UTF-8"?>
<svg version="1.1" xmlns="http://www.w3.org/2000/svg" width="1536" height="1024">
<path d="M0 0 C506.88 0 1013.76 0 1536 0 C1536 337.92 1536 675.84 1536 1024 C1029.12 1024 522.24 1024 0 1024 C0 686.08 0 348.16 0 0 Z " fill="#FAFAFA" transform="translate(0,0)"/>
<path d="M0 0 C2.37845738 0.00621712 4.75687679 0.00713691 7.13534164 0.00744247 C30.39845918 0.02878493 53.09813731 1.04222765 76.04421616 5.15429306 C78.27592593 5.53713089 80.51142224 5.8772942 82.75121689 6.20949936 C93.01153377 7.7347813 102.98939408 9.71509463 113.03271103 12.31863022 C114.43715671 12.67773427 115.84161659 13.03678283 117.24608994 13.39577866 C127.95681733 16.14966037 138.59383225 19.03094258 149.09521103 22.50613022 C150.28179306 22.89719955 151.46837509 23.28826889 152.69091415 23.69118881 C182.96545 33.73943217 212.14730001 46.08279037 240.09521103 61.50613022 C240.95791611 61.9755101 241.82062119 62.44488998 242.70946884 62.9284935 C276.69583073 81.47170665 307.11793635 104.99266306 336.09521103 130.50613022 C337.36171494 131.61988022 337.36171494 131.61988022 338.65380478 132.75613022 C353.80289305 146.24469448 369.33297865 160.09272432 382.46630478 175.59597397 C384.41758819 177.88416962 386.4433879 180.09712082 388.47021103 182.31863022 C393.2028405 187.56462966 397.65434037 193.01306721 402.09521103 198.50613022 C403.55299486 200.27741594 405.01133183 202.04824656 406.47021103 203.81863022 C414.94006298 214.17722965 423.16980837 224.72496263 431.09521103 235.50613022 C431.53945419 236.09635971 431.98369736 236.6865892 432.44140244 237.29470444 C439.74486428 247.01845587 445.83765982 257.08508347 451.46728134 267.86843491 C454.55275693 273.76824423 457.84751857 279.39409811 461.54345322 284.93484116 C467.81855478 295.33279108 468.5179209 306.61678318 466.09521103 318.31863022 C462.69469229 330.32325217 456.24352395 340.83477764 448.85302353 350.76003647 C445.69559553 355.00161397 442.74677049 359.37832002 439.78271103 363.75613022 C429.90471471 378.24967301 419.67695508 392.30243657 408.48778915 405.81374741 C406.63808025 408.06167555 404.8348355 410.34496405 403.03271103 412.63113022 C395.14792176 422.49951428 386.79957481 431.95124594 378.17724228 441.17800522 C376.48392041 442.99051515 374.81720826 444.81954915 373.17113876 446.67531967 C367.38736227 453.19591638 361.34721364 459.40848451 355.17455673 465.55715561 C353.52779699 467.19852818 351.88649007 468.84521841 350.24560165 470.49245834 C345.23475323 475.50646848 340.19478282 480.43892242 334.80102158 485.04543686 C332.22526306 487.25107063 329.76404979 489.56984125 327.28271103 491.88113022 C321.73850433 496.99623231 315.98468742 501.7914371 310.09521103 506.50613022 C308.95259119 507.44017925 307.81070084 508.37512116 306.66942978 509.31081772 C298.11519236 516.28849062 289.29245414 522.77351345 280.20946884 529.04470444 C278.14251116 530.47343523 276.08308518 531.91245837 274.02489853 533.35378647 C264.90309089 539.71768301 255.62471296 545.7704246 246.09521103 551.50613022 C245.35303329 551.9553685 244.61085556 552.40460678 243.84618759 552.86745834 C188.53813064 586.10313987 124.38179149 609.00339576 60.06640244 615.21364975 C57.27359325 615.48857049 54.48828881 615.80445892 51.70067978 616.12722397 C20.1141885 619.49058739 -12.95384075 619.03912486 -44.43652725 614.95486069 C-47.94217834 614.50129271 -51.45122359 614.09725109 -54.96338272 613.69753647 C-118.2285869 606.13019836 -181.065196 583.50589883 -235.28467178 550.11013412 C-237.91979781 548.49694199 -240.57531332 546.92416686 -243.24072647 545.36159897 C-266.48995835 531.6991411 -288.44485638 515.92628923 -308.38525772 497.74441147 C-310.93683814 495.47765863 -313.55650429 493.33072935 -316.21728897 491.19363022 C-321.04313601 487.29057263 -325.61437603 483.17471632 -330.13843155 478.93069077 C-332.94404582 476.3007916 -335.7856879 473.7362424 -338.70166397 471.22878647 C-343.4998394 467.05078338 -347.9809034 462.57649888 -352.46728897 458.06863022 C-353.27875381 457.26103256 -354.09021866 456.45343491 -354.92627335 455.62136459 C-359.21802569 451.32268448 -363.35142688 446.94983739 -367.31177139 442.34426498 C-369.72690013 439.55752104 -372.25755203 436.88302635 -374.77978897 434.19363022 C-380.07848152 428.49133758 -385.0347474 422.57973361 -389.90478897 416.50613022 C-390.87589863 415.32516925 -391.84865696 414.14556273 -392.82275772 412.96706772 C-401.53188503 402.40200744 -409.77669284 391.52241568 -417.90478897 380.50613022 C-418.46166397 379.75605698 -419.01853897 379.00598373 -419.59228897 378.233181 C-462.60074957 320.22086741 -462.60074957 320.22086741 -459.90478897 298.50613022 C-455.5132884 281.80459655 -445.39642628 268.16615686 -435.04932022 254.65066147 C-431.70259313 250.27061795 -428.48952849 245.79953035 -425.27978897 241.31863022 C-407.11250953 216.05496607 -387.35900255 191.64306108 -365.15869522 169.79909897 C-362.43396623 167.02714764 -359.93081217 164.11090238 -357.47510147 161.09988022 C-355.90478897 159.50613022 -355.90478897 159.50613022 -353.77197647 158.47488022 C-351.54782662 157.59600583 -351.54782662 157.59600583 -350.90478897 154.50613022 C-349.33838272 152.96316147 -349.33838272 152.96316147 -347.34228897 151.31863022 C-343.74890106 148.27610034 -340.42415919 145.07976366 -337.15478897 141.69363022 C-331.36076332 136.06054973 -325.08652111 130.94061695 -318.84228897 125.81863022 C-318.10550919 125.21414047 -317.3687294 124.60965073 -316.60962296 123.98684311 C-314.37648062 122.15772245 -312.14079457 120.33174882 -309.90478897 118.50613022 C-309.26057999 117.97793686 -308.616371 117.4497435 -307.95264053 116.90554428 C-279.13451245 93.31326547 -247.88566201 72.75904386 -214.90478897 55.50613022 C-213.813517 54.93451157 -213.813517 54.93451157 -212.70019913 54.35134506 C-208.88556756 52.36766075 -205.04166648 50.45461193 -201.16601944 48.59304428 C-199.52948798 47.80640661 -197.89608421 47.01325099 -196.26465225 46.21609116 C-160.0128398 28.57145794 -121.43337741 15.39817664 -81.90478897 7.50613022 C-80.95587784 7.31180405 -80.00696671 7.11747787 -79.02930069 6.91726303 C-52.78632776 1.58396866 -26.70394622 -0.07663087 0 0 Z " fill="#00AEBF" transform="translate(727.9047889709473,201.49386978149414)"/>
<path d="M0 0 C1.20221191 -0.00392761 1.20221191 -0.00392761 2.42871094 -0.00793457 C19.1283971 -0.01371244 35.27133077 1.69223357 51.75 4.3125 C52.72243652 4.45671387 53.69487305 4.60092773 54.69677734 4.74951172 C85.11119567 9.30422131 114.71025157 20.8817182 141.75 35.3125 C142.56734619 35.74087158 143.38469238 36.16924316 144.22680664 36.6105957 C151.27347089 40.36265025 157.93766376 44.55026749 164.5625 49 C165.61348877 49.70479492 166.66447754 50.40958984 167.74731445 51.13574219 C188.38736671 65.09415236 207.97639355 81.9210939 223.75 101.3125 C224.77867187 102.56546875 224.77867187 102.56546875 225.828125 103.84375 C237.71218942 118.79720855 249.03083262 134.88661318 256.87011719 152.35546875 C257.81957238 154.46724256 258.80340376 156.56114782 259.7890625 158.65625 C268.95714955 178.40273441 277.86324399 201.95645189 277.76855469 223.99414062 C277.76587585 224.80322876 277.76319702 225.61231689 277.76043701 226.44592285 C277.7569928 227.06189331 277.75354858 227.67786377 277.75 228.3125 C263.23346725 228.42934445 248.7170075 228.51716089 234.2001009 228.57156086 C227.45949387 228.59733364 220.71917916 228.63246567 213.97875977 228.68969727 C207.4754413 228.74488932 200.97231263 228.77391179 194.46877098 228.78688622 C191.98599653 228.79613386 189.50323895 228.81419213 187.02059364 228.84115028 C183.54632085 228.87738011 180.07330786 228.88244763 176.59887695 228.88012695 C175.05491745 228.90709152 175.05491745 228.90709152 173.47976685 228.93460083 C166.49327027 228.88401352 166.49327027 228.88401352 162.65509033 225.93276978 C160.80162846 223.38351002 159.54955101 221.16271597 158.43359375 218.22265625 C158.06169922 217.27326172 157.68980469 216.32386719 157.30664062 215.34570312 C156.75266602 213.87520508 156.75266602 213.87520508 156.1875 212.375 C152.11919152 201.72994414 148.06493619 193.23217058 137.875 187.203125 C131.71025848 184.48036416 124.13076957 184.00320985 117.671875 185.93359375 C110.64029195 189.49689597 106.03927955 195.66969024 103.60220337 203.03689575 C102.43587589 206.86035778 101.36645634 210.70680742 100.3125 214.5625 C99.84091225 216.22598112 99.36733718 217.88890004 98.8918457 219.55126953 C97.93951461 222.89272455 96.99908133 226.23715257 96.06933594 229.58496094 C94.90096638 233.78689513 93.69669562 237.97686167 92.4765625 242.1640625 C89.13618549 253.64822385 85.9934642 265.16170706 83.05102539 276.75366211 C80.11581784 288.09063823 76.43043926 299.19948535 72.75 310.3125 C69.75620855 307.31870855 69.68595806 303.62423315 68.98046875 299.58984375 C68.81931076 298.70610077 68.65815277 297.82235779 68.49211121 296.91183472 C68.14675173 295.0135863 67.80492277 293.11469286 67.46624756 291.21524048 C66.75806823 287.24373844 66.03337095 283.27531555 65.30895996 279.30674744 C64.94983562 277.33933481 64.59151627 275.37177507 64.23400879 273.40406799 C62.93986558 266.29458684 61.57298568 259.20491657 60.125 252.125 C58.23998779 242.87094383 56.47705065 233.59701225 54.75 224.3125 C51.69152799 207.8913406 48.45596025 191.5107499 45.05859375 175.15625 C44.45527784 172.25009345 43.85237843 169.34385101 43.25 166.4375 C43.0249176 165.3515303 43.0249176 165.3515303 42.79528809 164.24362183 C40.113093 151.27925683 37.65292738 138.28122705 35.28662109 125.25537109 C34.02645176 118.34450616 32.71438899 111.44395477 31.37597656 104.54785156 C30.90082536 102.09203887 30.42914131 99.63566473 29.95996094 97.17871094 C29.21794076 93.29741518 28.46533635 89.41826786 27.7074585 85.54003906 C27.40671692 83.99343687 27.1089793 82.44624696 26.81451416 80.8984375 C23.33512723 61.3275529 23.33512723 61.3275529 11.85546875 45.7109375 C5.40265391 41.42502338 -1.72361965 41.25368917 -9.25 42.3125 C-16.13355086 45.16665524 -20.59789487 49.32874709 -23.47509766 56.26660156 C-27.20607618 67.6487545 -30.15564451 79.19631665 -33.0625 90.8125 C-33.59710165 92.9300923 -34.13234682 95.04752224 -34.66821289 97.16479492 C-35.72464528 101.34028106 -36.77884365 105.51631927 -37.83105469 109.69287109 C-39.59219217 116.67657644 -41.38331331 123.65228605 -43.1875 130.625 C-43.49107422 131.79957764 -43.79464844 132.97415527 -44.10742188 134.18432617 C-45.15340968 138.22745095 -46.20129849 142.27007842 -47.25 146.3125 C-47.47667358 147.18632324 -47.70334717 148.06014648 -47.93688965 148.96044922 C-58.36748777 189.16440891 -58.36748777 189.16440891 -63.28515625 207.87890625 C-63.52487656 208.79132584 -63.76459686 209.70374542 -64.01158142 210.64381409 C-64.48453746 212.44388843 -64.95749379 214.24396269 -65.43045044 216.04403687 C-65.65965179 216.9163797 -65.88885315 217.78872253 -66.125 218.6875 C-66.35250946 219.55315582 -66.58001892 220.41881165 -66.81442261 221.31069946 C-69.95141381 233.25437256 -72.99886396 245.21573043 -75.96362305 257.20336914 C-78.05081219 265.61022734 -80.31933587 273.95391157 -82.68261719 282.28662109 C-84.26727247 287.9447405 -85.75014079 293.63146904 -87.25 299.3125 C-87.91 299.3125 -88.57 299.3125 -89.25 299.3125 C-91.54303044 293.1093465 -93.83589764 286.90613267 -96.12866211 280.70288086 C-96.90531904 278.60163065 -97.68201057 276.50039324 -98.45874023 274.39916992 C-99.21324346 272.35806068 -99.9675875 270.31689259 -100.72177124 268.27566528 C-101.47258755 266.24492219 -102.22439903 264.21454676 -102.97720337 262.18453979 C-104.75379527 257.38915408 -106.51446013 252.58957711 -108.22998047 247.77197266 C-108.53987411 246.90905106 -108.84976776 246.04612946 -109.16905212 245.15705872 C-109.74086941 243.56203797 -110.30647375 241.96476877 -110.86427307 240.36479187 C-113.73753918 232.38657751 -117.56537798 227.03688807 -124.98100281 222.72425842 C-131.04104753 220.21408363 -137.79886217 220.88998384 -144.24145508 220.91186523 C-145.7663222 220.90611778 -147.29118477 220.89903299 -148.81604004 220.89071655 C-152.08885223 220.87564477 -155.36150172 220.86982556 -158.63434792 220.87124443 C-163.80651003 220.87328171 -168.9784537 220.85368984 -174.15055847 220.83106995 C-184.18781998 220.79015288 -194.22506403 220.7714944 -204.26239014 220.75489807 C-217.05710702 220.73251701 -229.85177347 220.69910135 -242.64640731 220.64769894 C-247.79156703 220.62774164 -252.93661175 220.61819507 -258.08180869 220.61674678 C-261.27444088 220.61400429 -264.46700906 220.60319246 -267.65961456 220.59023666 C-269.14393969 220.58594315 -270.62827927 220.58510624 -272.11260796 220.58791161 C-274.13247569 220.59129242 -276.15235287 220.58142032 -278.17219543 220.57078552 C-279.87032741 220.56833407 -279.87032741 220.56833407 -281.60276508 220.56583309 C-284.25 220.3125 -284.25 220.3125 -286.25 218.3125 C-287.77856675 209.57727148 -284.81708228 202.74402 -281 195.0625 C-280.18680298 193.37120972 -280.18680298 193.37120972 -279.35717773 191.64575195 C-277.68124691 188.18755505 -275.97117078 184.74837285 -274.25 181.3125 C-273.48937256 179.77698486 -273.48937256 179.77698486 -272.71337891 178.21044922 C-260.41377057 153.49316281 -245.85094001 130.99652959 -227.78686523 110.13623047 C-226.60674638 108.73583526 -225.45207445 107.31396406 -224.30883789 105.88330078 C-218.62262442 98.77759255 -212.51335128 92.21834287 -206.0625 85.8125 C-205.30773376 85.05897247 -205.30773376 85.05897247 -204.53771973 84.29022217 C-197.77896538 77.55690486 -190.91382071 71.16552205 -183.21875 65.50390625 C-180.3687253 63.40013802 -177.69293885 61.17454266 -175 58.875 C-162.81257088 48.87092822 -149.16398265 40.66915932 -135.25 33.3125 C-134.59821777 32.96735352 -133.94643555 32.62220703 -133.27490234 32.26660156 C-92.14407898 10.68279921 -46.35213178 0.1462288 0 0 Z " fill="#FAFAFA" transform="translate(731.25,258.6875)"/>
<path d="M0 0 C0.66 0 1.32 0 2 0 C2.31827255 1.59469368 2.31827255 1.59469368 2.64297485 3.22160339 C4.67087692 13.38163874 6.69986908 23.54145589 8.72985268 33.70107555 C9.77273612 38.92064856 10.81527253 44.14029032 11.85693359 49.36010742 C13.06238693 55.40044583 14.26914937 61.44052181 15.4765625 67.48046875 C15.67338875 68.46562344 15.870215 69.45077812 16.07300568 70.46578598 C17.97140165 79.96318413 19.87417248 89.45923512 21.85449219 98.93994141 C22.0646185 99.94697034 22.0646185 99.94697034 22.27898979 100.9743433 C22.90308546 103.96061479 23.53184469 106.94578741 24.16812134 109.92948914 C25.49769107 116.24111228 26.58595198 122.5532556 27.53442383 128.93315125 C28.18808229 133.23893784 28.96754574 137.51664239 29.76953125 141.796875 C30.01120026 143.09887093 30.01120026 143.09887093 30.25775146 144.4271698 C30.77367369 147.20188627 31.29284171 149.975981 31.8125 152.75 C31.99118622 153.70730011 32.16987244 154.66460022 32.35397339 155.65090942 C34.72053833 168.32711295 37.15328716 180.98662931 39.71484375 193.625 C41.22825334 201.10043719 42.69942735 208.58405336 44.16183472 216.0696106 C44.46321487 217.61038857 44.76551412 219.15098714 45.06887817 220.69137573 C45.49894247 222.87580189 45.92621571 225.06074427 46.3515625 227.24609375 C46.49020721 227.9577066 46.62885193 228.66931946 46.771698 229.40249634 C47.50324523 233.21570711 48.17725551 237.03169813 48.78344727 240.86694336 C48.97534134 242.07417809 48.97534134 242.07417809 49.17111206 243.30580139 C49.41111898 244.83797524 49.64423345 246.37125213 49.868927 247.90574646 C51.39742943 257.69995658 55.38275692 265.44841987 63.0703125 271.79296875 C67.2692539 274.41943209 72.16031789 274.64762473 77 274 C80.63660734 272.69056206 83.88188068 271.1398832 86.60546875 268.36328125 C88 267 88 267 90 267 C95.33683151 254.11396626 99.07987259 240.5953212 102.69641113 227.14746094 C103.87267351 222.77504042 105.06664704 218.40744168 106.2578125 214.0390625 C106.61063293 212.74249725 106.61063293 212.74249725 106.97058105 211.41973877 C109.01083905 203.93112533 111.1110324 196.46108931 113.25 189 C113.53020996 188.02111816 113.81041992 187.04223633 114.09912109 186.03369141 C115.54132491 181.0160755 116.99834094 176.00286218 118.46362305 170.99194336 C121.65834917 160.06430454 124.82809988 149.12999025 127.96171188 138.18468094 C129.14183385 134.06621032 130.32648813 129.94904094 131.51125145 125.83190346 C132.52591572 122.30451443 133.53745991 118.77627898 134.54321289 115.24633789 C135.53649188 111.7607824 136.53732997 108.27748104 137.54353905 104.79563713 C137.92149118 103.48266694 138.29666461 102.16889349 138.66897011 100.85431099 C139.18261444 99.04215727 139.70687305 97.23302206 140.23168945 95.42407227 C140.52590286 94.39725845 140.82011627 93.37044464 141.12324524 92.31251526 C142 90 142 90 144 89 C144.29132813 89.66386719 144.58265625 90.32773437 144.8828125 91.01171875 C148.20162232 98.16072732 151.50386806 102.88194643 159 106 C161.51247653 106.30869829 161.51247653 106.30869829 164.26446533 106.2784729 C165.3301474 106.28963638 166.39582947 106.30079987 167.49380493 106.31230164 C168.65761688 106.31446182 169.82142883 106.31662201 171.02050781 106.31884766 C172.25004181 106.32889328 173.47957581 106.3389389 174.74636841 106.34928894 C178.11382956 106.37487891 181.48112226 106.39173519 184.8486414 106.40471697 C188.3694189 106.42035194 191.89011108 106.44714098 195.41082764 106.4727478 C202.07594737 106.51952914 208.74108317 106.55627634 215.40628314 106.58942068 C222.99515967 106.62764664 230.58395049 106.67705555 238.17275476 106.72740483 C253.78177455 106.83071508 269.3908424 106.9199784 285 107 C285.01207672 108.91730212 285.02068478 110.83462629 285.02783203 112.75195312 C285.03558151 114.35351257 285.03558151 114.35351257 285.04348755 115.98742676 C284.66360432 142.30360443 270.99766335 169.23506012 259 192 C258.6385791 192.69625488 258.2771582 193.39250977 257.90478516 194.10986328 C246.53405438 215.89765064 231.87631398 235.20036185 215 253 C214.28239502 253.76062744 214.28239502 253.76062744 213.55029297 254.53662109 C206.821298 261.62107618 199.75154876 267.88681804 191.84277344 273.64892578 C189.85097032 275.10926474 187.88292436 276.59874068 185.9140625 278.08984375 C151.03942655 304.23111478 107.87898642 321.90622391 64.78808594 328.56494141 C62.13458607 328.97899892 59.49412644 329.43960007 56.8515625 329.91796875 C41.05442178 332.71569334 25.39175105 333.07236085 9.375 333.125 C8.20855957 333.12975342 7.04211914 333.13450684 5.84033203 333.1394043 C-9.82609452 333.10993561 -25.14619531 331.87905272 -40.625 329.5 C-41.46394806 329.37194977 -42.30289612 329.24389954 -43.16726685 329.11196899 C-98.29256727 320.55056444 -149.44889426 296.70801403 -190.67578125 259.10546875 C-192.71273925 257.26022445 -194.78270847 255.4691833 -196.875 253.6875 C-206.17379399 245.55340343 -214.34505958 236.68162785 -222 227 C-222.88414584 225.93795694 -223.7709935 224.87815886 -224.66015625 223.8203125 C-252.26587992 190.66603215 -275.84279144 150.10045989 -282 107 C-236.46 107 -190.92 107 -144 107 C-132.62328816 135.4417796 -132.62328816 135.4417796 -128.8125 146.4375 C-126.20892457 153.83623303 -123.59224831 161.21380287 -120.6875 168.5 C-116.38366682 179.30630571 -112.5349621 190.28553719 -108.61791992 201.23632812 C-102.55187413 221.26214334 -102.55187413 221.26214334 -88 235 C-81.3152699 237.22824337 -76.17635549 236.16535889 -70.03515625 233.12109375 C-62.20091707 228.80549558 -58.80090978 222.03808862 -56.19140625 213.6796875 C-55.63614814 211.74828247 -55.09371913 209.81315458 -54.5625 207.875 C-54.11438965 206.28824463 -54.11438965 206.28824463 -53.65722656 204.66943359 C-51.26185962 196.12273381 -48.99627885 187.54228859 -46.7890625 178.9453125 C-45.36374644 173.39381583 -43.91590627 167.84846644 -42.4609375 162.3046875 C-42.23253677 161.43440414 -42.00413605 160.56412079 -41.76881409 159.66746521 C-41.29493278 157.86207269 -40.82101972 156.0566885 -40.34707642 154.25131226 C-36.40883218 139.24550485 -32.4936866 124.23407353 -28.63720703 109.20703125 C-25.92689828 98.65945048 -23.11753962 88.13932616 -20.28125 77.625 C-15.37240823 59.39275043 -10.68132739 41.1079471 -6.03710938 22.80664062 C-5.78476532 21.81353378 -5.53242126 20.82042694 -5.27243042 19.79722595 C-4.79793722 17.9292755 -4.32434569 16.06109568 -3.85183716 14.19264221 C-2.64386512 9.43715595 -1.3755484 4.70983622 0 0 Z " fill="#F9FAFA" transform="translate(725,427)"/>
<path d="M0 0 C5.61 0 11.22 0 17 0 C17.33 6.93 17.66 13.86 18 21 C13.05 19.35 8.1 17.7 3 16 C3 15.34 3 14.68 3 14 C1.68 13.34 0.36 12.68 -1 12 C-0.67 8.04 -0.34 4.08 0 0 Z " fill="#F4F5F6" transform="translate(891,215)"/>
<path d="M0 0 C5.61 0 11.22 0 17 0 C17 4.62 17 9.24 17 14 C15.35 14.33 13.7 14.66 12 15 C12 15.33 12 15.66 12 16 C9.3125 16.3125 9.3125 16.3125 6 16 C2.90518677 13.46788008 0.14549482 10.89468238 -1 7 C-0.67 4.69 -0.34 2.38 0 0 Z " fill="#F3F5F6" transform="translate(891,471)"/>
<path d="M0 0 C5.94 0 11.88 0 18 0 C18 3.96 18 7.92 18 12 C16.329375 12.144375 14.65875 12.28875 12.9375 12.4375 C8.59671063 12.83007785 4.3059347 13.33018794 0 14 C0 9.38 0 4.76 0 0 Z " fill="#F1F5F5" transform="translate(715,288)"/>
<path d="M0 0 C5.61 0 11.22 0 17 0 C17 2.97 17 5.94 17 9 C16.34 9 15.68 9 15 9 C15 9.66 15 10.32 15 11 C7.67605634 13.3943662 7.67605634 13.3943662 4 12 C2.68 11.67 1.36 11.34 0 11 C0 7.37 0 3.74 0 0 Z " fill="#F2F5F5" transform="translate(768,745)"/>
<path d="M0 0 C0.33 0 0.66 0 1 0 C1.12117188 0.80824219 1.24234375 1.61648438 1.3671875 2.44921875 C1.53476562 3.51785156 1.70234375 4.58648437 1.875 5.6875 C2.11863281 7.27111328 2.11863281 7.27111328 2.3671875 8.88671875 C2.89606531 11.97514168 2.89606531 11.97514168 4.0703125 14.64453125 C5 17 5 17 5 21 C0.71 21 -3.58 21 -8 21 C-8 15.06 -8 9.12 -8 3 C-3 3 -3 3 0 4 C0 2.68 0 1.36 0 0 Z " fill="#F3F6F6" transform="translate(267,504)"/>
<path d="M0 0 C5.07634826 1.7989503 9.63713611 4.49026455 14.3125 7.125 C15.14845703 7.59292969 15.98441406 8.06085937 16.84570312 8.54296875 C18.89866233 9.6926259 20.95002202 10.84503802 23 12 C22.67 12.66 22.34 13.32 22 14 C21.01 13.835 20.02 13.67 19 13.5 C12.05119475 12.60622251 4.99117499 12.92364008 -2 13 C-2 9.37 -2 5.74 -2 2 C-1.34 2 -0.68 2 0 2 C0 1.34 0 0.68 0 0 Z " fill="#F2F6F6" transform="translate(490,750)"/>
<path d="M0 0 C2.97 0 5.94 0 9 0 C9 5.94 9 11.88 9 18 C6.69 18 4.38 18 2 18 C-0.68006581 15.31993419 -0.66988365 13.27938836 -1.25 9.5625 C-1.44078125 8.40878906 -1.6315625 7.25507813 -1.828125 6.06640625 C-2 3 -2 3 0 0 Z " fill="#F3F5F5" transform="translate(776,416)"/>
<path d="M0 0 C0.66 0 1.32 0 2 0 C2.75868421 3.5777386 3.47671932 7.16246346 4.1875 10.75 C4.40341797 11.76578125 4.61933594 12.7815625 4.84179688 13.828125 C5.03193359 14.8078125 5.22207031 15.7875 5.41796875 16.796875 C5.60125732 17.69760742 5.7845459 18.59833984 5.97338867 19.52636719 C6 22 6 22 4.7590332 24.30566406 C3 26 3 26 -0.5625 26.3125 C-4 26 -4 26 -6 25 C-5.37768893 22.14522349 -4.75223464 19.29119519 -4.125 16.4375 C-3.95097656 15.63763672 -3.77695312 14.83777344 -3.59765625 14.01367188 C-2.55556397 9.28566059 -1.38268277 4.64008408 0 0 Z " fill="#EBF5F6" transform="translate(725,427)"/>
<path d="M0 0 C0.33 0.66 0.66 1.32 1 2 C-0.65 4.31 -2.3 6.62 -4 9 C-4.33 8.34 -4.66 7.68 -5 7 C-3.35 4.69 -1.7 2.38 0 0 Z M-6 9 C-6 12 -6 12 -6 12 Z M-8 12 C-7.34 12.33 -6.68 12.66 -6 13 C-6 18.61 -6 24.22 -6 30 C-10.98046875 30.34179688 -10.98046875 30.34179688 -15.9609375 30.68359375 C-18.91518901 30.81084936 -18.91518901 30.81084936 -21 32 C-19.58160025 27.95057896 -17.62488736 24.86833149 -15.0625 21.4375 C-14.02802734 20.04337891 -14.02802734 20.04337891 -12.97265625 18.62109375 C-11.99619141 17.32365234 -11.99619141 17.32365234 -11 16 C-10.42121094 15.22785156 -9.84242187 14.45570313 -9.24609375 13.66015625 C-8.83488281 13.11230469 -8.42367188 12.56445312 -8 12 Z " fill="#F0F6F6" transform="translate(1178,549)"/>
<path d="M0 0 C5.94 0 11.88 0 18 0 C18 2.64 18 5.28 18 8 C16.9275 7.979375 15.855 7.95875 14.75 7.9375 C11.26409618 7.83132282 11.26409618 7.83132282 9.0625 8.5625 C6.50340048 9.10533929 4.77602399 8.694006 2.25 8.0625 C1.45078125 7.86785156 0.6515625 7.67320312 -0.171875 7.47265625 C-1.07679688 7.23869141 -1.07679688 7.23869141 -2 7 C-1.34 6.34 -0.68 5.68 0 5 C0 3.35 0 1.7 0 0 Z " fill="#F0F5F5" transform="translate(662,745)"/>
<path d="M0 0 C2.97 0 5.94 0 9 0 C9 5.94 9 11.88 9 18 C8.01 18.33 7.02 18.66 6 19 C3 17 3 17 2.3125 14.875 C2.209375 14.25625 2.10625 13.6375 2 13 C1.01 13.495 1.01 13.495 0 14 C0 9.38 0 4.76 0 0 Z " fill="#F2F4F5" transform="translate(793,507)"/>
<path d="M0 0 C1.36623674 2.73247348 1.128426 4.98198902 1 8 C0 9 0 9 -3.81640625 9.09765625 C-5.39846682 9.09098089 -6.98051159 9.07901875 -8.5625 9.0625 C-9.36880859 9.05798828 -10.17511719 9.05347656 -11.00585938 9.04882812 C-13.00393756 9.03700518 -15.00197783 9.01906914 -17 9 C-17 7.35 -17 5.7 -17 4 C-16.2575 3.71125 -15.515 3.4225 -14.75 3.125 C-12.09167265 2.12653137 -12.09167265 2.12653137 -10.1875 0.875 C-6.79086864 -0.48365254 -3.63899603 -0.12129987 0 0 Z " fill="#F4F6F6" transform="translate(837,809)"/>
<path d="M0 0 C-0.66 2.64 -1.32 5.28 -2 8 C-7.61 8 -13.22 8 -19 8 C-19 6.02 -19 4.04 -19 2 C-16.95928485 1.66089006 -14.91737379 1.32897296 -12.875 1 C-11.73804688 0.814375 -10.60109375 0.62875 -9.4296875 0.4375 C-6.23862398 0.03043951 -3.21182209 -0.07809902 0 0 Z " fill="#F3F5F5" transform="translate(699,261)"/>
<path d="M0 0 C5.61 0 11.22 0 17 0 C17 2.31 17 4.62 17 7 C15.41058594 6.98259766 15.41058594 6.98259766 13.7890625 6.96484375 C12.40104342 6.95546524 11.01302245 6.94636511 9.625 6.9375 C8.57699219 6.92493164 8.57699219 6.92493164 7.5078125 6.91210938 C3.62704624 6.8164558 3.62704624 6.8164558 0 8 C0 5.36 0 2.72 0 0 Z " fill="#F4F5F6" transform="translate(540,471)"/>
<path d="M0 0 C2.81256281 -0.02684312 5.62487241 -0.04676188 8.4375 -0.0625 C9.23994141 -0.07087891 10.04238281 -0.07925781 10.86914062 -0.08789062 C12.91295221 -0.0965143 14.95683902 -0.0522815 17 0 C18 1 18 1 18.0625 4.0625 C18.041875 5.031875 18.02125 6.00125 18 7 C16.73542969 6.98259766 16.73542969 6.98259766 15.4453125 6.96484375 C14.34960938 6.95582031 13.25390625 6.94679688 12.125 6.9375 C11.03445313 6.92589844 9.94390625 6.91429687 8.8203125 6.90234375 C6.04822454 6.80255697 6.04822454 6.80255697 4 8 C1.875 7.0625 1.875 7.0625 0 6 C0 4.02 0 2.04 0 0 Z " fill="#F4F4F5" transform="translate(505,471)"/>
<path d="M0 0 C5.94 0 11.88 0 18 0 C18 1.98 18 3.96 18 6 C14.00204108 6.95619733 10.29196078 7.1039592 6.1875 7.0625 C5.02605469 7.05347656 3.86460937 7.04445313 2.66796875 7.03515625 C1.78753906 7.02355469 0.90710938 7.01195312 0 7 C0 4.69 0 2.38 0 0 Z " fill="#F4F5F5" transform="translate(470,471)"/>
<path d="M0 0 C0.33 0 0.66 0 1 0 C1.99 5.94 2.98 11.88 4 18 C2 19 2 19 -5 19 C-5 14.38 -5 9.76 -5 5 C-3.35 4.67 -1.7 4.34 0 4 C0 2.68 0 1.36 0 0 Z " fill="#F0F5F5" transform="translate(756,579)"/>
<path d="M0 0 C0.66 0.33 1.32 0.66 2 1 C2 4.3 2 7.6 2 11 C-2.95 11 -7.9 11 -13 11 C-12 7 -12 7 -9.34765625 5.04296875 C-8.26355469 4.43066406 -7.17945313 3.81835938 -6.0625 3.1875 C-4.98097656 2.56230469 -3.89945313 1.93710937 -2.78515625 1.29296875 C-1.86605469 0.86628906 -0.94695313 0.43960937 0 0 Z " fill="#F2F6F6" transform="translate(590,295)"/>
<path d="M0 0 C5.61 0 11.22 0 17 0 C17.495 1.485 17.495 1.485 18 3 C18.99 3.66 19.98 4.32 21 5 C5.49 5 -10.02 5 -26 5 C-26 4.67 -26 4.34 -26 4 C-17.42 3.67 -8.84 3.34 0 3 C0 2.01 0 1.02 0 0 Z " fill="#BAE6EA" transform="translate(733,197)"/>
<path d="M0 0 C3.3 0.33 6.6 0.66 10 1 C10 6.61 10 12.22 10 18 C9.01 18 8.02 18 7 18 C6.20558928 16.12616097 5.41460026 14.25087114 4.625 12.375 C4.18414063 11.33085937 3.74328125 10.28671875 3.2890625 9.2109375 C2.06863678 6.17096798 1.0018609 3.11794095 0 0 Z " fill="#F2F6F7" transform="translate(880,452)"/>
<path d="M0 0 C4.62 0 9.24 0 14 0 C14 2.31 14 4.62 14 7 C13.34 7 12.68 7 12 7 C11.67 7.66 11.34 8.32 11 9 C9.01755108 8.21658881 7.03911141 7.42302514 5.0625 6.625 C3.96035156 6.18414062 2.85820313 5.74328125 1.72265625 5.2890625 C-1 4 -1 4 -2 2 C-1.34 2 -0.68 2 0 2 C0 1.34 0 0.68 0 0 Z " fill="#F2F5F6" transform="translate(912,233)"/>
<path d="M0 0 C2.04159095 -0.0272616 4.08328963 -0.04651345 6.125 -0.0625 C7.26195312 -0.07410156 8.39890625 -0.08570313 9.5703125 -0.09765625 C12.8129156 -0.005327 15.81932612 0.38610094 19 1 C18.01171875 3.48046875 18.01171875 3.48046875 16 6 C13.05906948 6.37859559 10.72355042 6.47775614 7.8125 6.3125 C7.06291016 6.28994141 6.31332031 6.26738281 5.54101562 6.24414062 C3.6931553 6.18529157 1.84632333 6.09560938 0 6 C0 4.02 0 2.04 0 0 Z " fill="#F3F6F6" transform="translate(645,812)"/>
<path d="M0 0 C1.48831242 0.00667405 2.97660807 0.01863442 4.46484375 0.03515625 C5.22345703 0.03966797 5.98207031 0.04417969 6.76367188 0.04882812 C8.64326246 0.06064945 10.52281274 0.07858547 12.40234375 0.09765625 C12.40234375 2.09765625 12.40234375 2.09765625 11.2109375 3.64453125 C8.97934838 5.4375143 7.26813439 5.82493739 4.46484375 6.34765625 C3.61019531 6.5178125 2.75554688 6.68796875 1.875 6.86328125 C-0.59298642 7.09721361 -2.25779724 6.85770326 -4.59765625 6.09765625 C-4.64037725 4.4315372 -4.63829457 2.7638274 -4.59765625 1.09765625 C-3.59765625 0.09765625 -3.59765625 0.09765625 0 0 Z " fill="#EFF4F5" transform="translate(806.59765625,744.90234375)"/>
<path d="M0 0 C0.66 0.33 1.32 0.66 2 1 C2 5.62 2 10.24 2 15 C-0.31 15 -2.62 15 -5 15 C-5.99 15.66 -6.98 16.32 -8 17 C-6.3341708 10.83643195 -3.12194714 5.51740344 0 0 Z " fill="#F2F6F6" transform="translate(468,419)"/>
<path d="M0 0 C4.95 0 9.9 0 15 0 C15 0.99 15 1.98 15 3 C5.77448747 7.59225513 5.77448747 7.59225513 0 7 C0 4.69 0 2.38 0 0 Z " fill="#F2F5F6" transform="translate(855,727)"/>
<path d="M0 0 C0.99 0 1.98 0 3 0 C3 5.28 3 10.56 3 16 C1.35 16 -0.3 16 -2 16 C-1.50130596 10.63108121 -0.97772468 5.30764827 0 0 Z " fill="#F0F5F5" transform="translate(694,545)"/>
<path d="M0 0 C5.61 0 11.22 0 17 0 C17 0.99 17 1.98 17 3 C11.06 3 5.12 3 -1 3 C-0.67 2.01 -0.34 1.02 0 0 Z " fill="#F5F5F5" transform="translate(698,197)"/>
<path d="M0 0 C0.66 0.33 1.32 0.66 2 1 C-1.63 7.93 -5.26 14.86 -9 22 C-9.66 21.34 -10.32 20.68 -11 20 C-7.65038916 13.0935859 -4.20246858 6.42730488 0 0 Z " fill="#12ADBE" transform="translate(465,422)"/>
<path d="M0 0 C2.31 0.33 4.62 0.66 7 1 C6.67 1.99 6.34 2.98 6 4 C2.04 4 -1.92 4 -6 4 C-6 3.67 -6 3.34 -6 3 C-4.35 3 -2.7 3 -1 3 C-0.67 2.01 -0.34 1.02 0 0 Z " fill="#EDF4F5" transform="translate(791,265)"/>
<path d="M0 0 C0.66 0.66 1.32 1.32 2 2 C0.90398831 3.00893131 -0.20213918 4.00688225 -1.3125 5 C-1.92738281 5.556875 -2.54226563 6.11375 -3.17578125 6.6875 C-5 8 -5 8 -8 8 C-8 8.66 -8 9.32 -8 10 C-8.99 9.67 -9.98 9.34 -11 9 C-7.37 6.03 -3.74 3.06 0 0 Z " fill="#0DABBD" transform="translate(428,312)"/>
<path d="M0 0 C0 0.66 0 1.32 0 2 C-0.66 2 -1.32 2 -2 2 C-2.28875 2.639375 -2.5775 3.27875 -2.875 3.9375 C-4 6 -4 6 -6 7 C-6.66 6.34 -7.32 5.68 -8 5 C-2.25 0 -2.25 0 0 0 Z M-10 6 C-9.34 6.33 -8.68 6.66 -8 7 C-9.485 8.485 -9.485 8.485 -11 10 C-11.99 9.67 -12.98 9.34 -14 9 C-12.68 8.01 -11.36 7.02 -10 6 Z " fill="#0FACBD" transform="translate(443,302)"/>
<path d="M0 0 C0.66 0.33 1.32 0.66 2 1 C1.2884375 1.5878125 1.2884375 1.5878125 0.5625 2.1875 C-1.35179633 4.40808374 -1.61266988 6.13375709 -2 9 C-3.65 9.33 -5.3 9.66 -7 10 C-5.15083921 5.93184627 -3.33557632 2.9905167 0 0 Z " fill="#ECF5F6" transform="translate(1067,681)"/>
<path d="M0 0 C1.50433594 0.29197266 1.50433594 0.29197266 3.0390625 0.58984375 C4.19535156 0.82380859 4.19535156 0.82380859 5.375 1.0625 C5.375 1.7225 5.375 2.3825 5.375 3.0625 C3.77004433 2.94807539 2.16601881 2.82055306 0.5625 2.6875 C-0.33082031 2.61789062 -1.22414063 2.54828125 -2.14453125 2.4765625 C-4.625 2.0625 -4.625 2.0625 -7.625 0.0625 C-4.81015955 -1.34492022 -3.05563887 -0.60402164 0 0 Z " fill="#1BB0C1" transform="translate(650.625,808.9375)"/>
<path d="M0 0 C-0.33 0.99 -0.66 1.98 -1 3 C-2.4370809 3.05422947 -3.87475462 3.09289723 -5.3125 3.125 C-6.11300781 3.14820313 -6.91351562 3.17140625 -7.73828125 3.1953125 C-10 3 -10 3 -13 1 C-8.61414671 0.29826347 -4.44209357 -0.10834375 0 0 Z " fill="#DFF5F6" transform="translate(699,261)"/>
<path d="M0 0 C0.66 0.33 1.32 0.66 2 1 C-0.8956414 4.32462531 -2.69268237 5.30151606 -7 6 C-7.33 6.66 -7.66 7.32 -8 8 C-8.66 7.34 -9.32 6.68 -10 6 C-8.3811004 4.96951963 -6.75467511 3.95085322 -5.125 2.9375 C-4.22007812 2.36902344 -3.31515625 1.80054688 -2.3828125 1.21484375 C-1.20332031 0.61349609 -1.20332031 0.61349609 0 0 Z " fill="#EAF7F8" transform="translate(987,744)"/>
<path d="M0 0 C4.10839064 1.45002023 7.50344613 3.3979134 11 6 C11 6.66 11 7.32 11 8 C6.89160936 6.54997977 3.49655387 4.6020866 0 2 C0 1.34 0 0.68 0 0 Z " fill="#15ACBE" transform="translate(893,305)"/>
<path d="M0 0 C1.32 0.99 2.64 1.98 4 3 C0.04 3 -3.92 3 -8 3 C-8 2.34 -8 1.68 -8 1 C-4.97827058 -0.00724314 -3.14484365 -0.30681401 0 0 Z " fill="#F0F6F6" transform="translate(688,816)"/>
<path d="M0 0 C0.33 0.66 0.66 1.32 1 2 C1.66 2.33 2.32 2.66 3 3 C2.34 3 1.68 3 1 3 C1.33 4.98 1.66 6.96 2 9 C0.02 9.99 0.02 9.99 -2 11 C-1.34 7.37 -0.68 3.74 0 0 Z " fill="#DEF2F3" transform="translate(708,492)"/>
<path d="M0 0 C1.32 0.33 2.64 0.66 4 1 C1.16569547 4.2542015 -0.68607774 5.5206753 -5 6 C-3.35 4.02 -1.7 2.04 0 0 Z " fill="#08A9BB" transform="translate(717,302)"/>
<path d="M0 0 C0.33 0 0.66 0 1 0 C1 2.64 1 5.28 1 8 C0.34 8 -0.32 8 -1 8 C-1.33 8.99 -1.66 9.98 -2 11 C-2.28571429 3.57142857 -2.28571429 3.57142857 0 0 Z " fill="#EBF5F6" transform="translate(784,453)"/>
<path d="M0 0 C-0.99 1.485 -0.99 1.485 -2 3 C-5 3.3125 -5 3.3125 -8 3 C-8.66 2.34 -9.32 1.68 -10 1 C-8.71073008 0.63720544 -7.41846728 0.28503302 -6.125 -0.0625 C-5.40570312 -0.25972656 -4.68640625 -0.45695313 -3.9453125 -0.66015625 C-2 -1 -2 -1 0 0 Z " fill="#E3F2F4" transform="translate(867,801)"/>
<path d="M0 0 C0.33 0.99 0.66 1.98 1 3 C-0.32 4.32 -1.64 5.64 -3 7 C-4.125 3.25 -4.125 3.25 -3 1 C-2.01 0.67 -1.02 0.34 0 0 Z " fill="#EBF9F9" transform="translate(281,470)"/>
<path d="M0 0 C0.66 0.33 1.32 0.66 2 1 C1.01 1.66 0.02 2.32 -1 3 C-0.67 2.01 -0.34 1.02 0 0 Z M-2 3 C-1.67 3.99 -1.34 4.98 -1 6 C-3.475 7.485 -3.475 7.485 -6 9 C-4.84826645 6.53199953 -3.95216435 4.95216435 -2 3 Z " fill="#E5F6F6" transform="translate(507,364)"/>
<path d="M0 0 C3.36720387 1.39332574 4.9859524 2.9789286 7 6 C4 6 4 6 1.8125 4.125 C0 2 0 2 0 0 Z " fill="#20B3C2" transform="translate(374,656)"/>
<path d="M0 0 C2.31 1.65 4.62 3.3 7 5 C6.67 5.99 6.34 6.98 6 8 C1.3125 4.38671875 1.3125 4.38671875 0 3 C0 2.01 0 1.02 0 0 Z " fill="#E8F5F6" transform="translate(544,692)"/>
<path d="M0 0 C2.2477975 2.05233685 3.0022242 3.00667261 4 6 C2.68 6 1.36 6 0 6 C0 4.02 0 2.04 0 0 Z " fill="#F2F3F3" transform="translate(277,536)"/>
<path d="M0 0 C-2.97 1.65 -5.94 3.3 -9 5 C-7.27964048 -0.16107856 -5.26612131 -1.31653033 0 0 Z " fill="#11ACBE" transform="translate(580,302)"/>
</svg>
